<svg xmlns="http://www.w3.org/2000/svg" viewBox="0 0 134.1 24.98"><defs><style>.cls-1{fill:#fff;}</style></defs><title>logo</title><g id="Слой_2" data-name="Слой 2"><g id="Слой_1-2" data-name="Слой 1"><path class="cls-1" d="M3,24.47v-9.8c0-2.43,1.47-4.12,3.67-4.12,2.36,0,3.34,1.62,3.34,3.72V24.47h3.08V14.64c0-2.33,1.47-4.09,3.64-4.09,2.33,0,3.34,1.59,3.34,3.72V24.47h3V13.93c0-4.26-2.69-6.19-5.44-6.19a5.62,5.62,0,0,0-5.27,3.08A4.91,4.91,0,0,0,7.73,7.74a5.39,5.39,0,0,0-4.78,2.64V8.21H0V24.47Zm33-2.33c-2.62,0-4.91-2-4.91-5.81s2.29-5.78,4.91-5.78,4.91,2,4.91,5.78-2.29,5.81-4.91,5.81Zm0-14.43c-4.72,0-8.06,3.68-8.06,8.62S31.37,25,36.09,25s8.06-3.68,8.06-8.65-3.34-8.62-8.06-8.62Zm15.09,8.58c0-3.35,1.83-5.71,4.65-5.71s4.52,2.3,4.52,5.64-1.74,5.88-4.55,5.88-4.62-2.47-4.62-5.81Zm9.21,6a14,14,0,0,0,.16,2.2h3a26.5,26.5,0,0,1-.16-3V0h-3V10.51c-.52-1.32-2-2.74-4.82-2.74C51,7.77,48,11.7,48,16.29c0,4.83,2.85,8.62,7.47,8.62A5.26,5.26,0,0,0,60.38,22Zm19.71.24a14.81,14.81,0,0,0,.13,2h2.95a28.22,28.22,0,0,1-.16-3V8.21H79.92V18c0,2.47-1.24,4.16-3.74,4.16s-3.57-2-3.57-4.19V8.21H69.54V18.45c0,3.69,2.23,6.52,5.9,6.52a5.1,5.1,0,0,0,4.65-2.47Zm12.5,2V0H89.5V24.47Zm8.5-9.8a4.3,4.3,0,0,1,4.29-4.16,4,4,0,0,1,4.32,4.16Zm9.08,4.23a4.31,4.31,0,0,1-4.42,3.28A4.76,4.76,0,0,1,101,17.24h11.86a7.36,7.36,0,0,0,.07-1c0-5.07-2.72-8.52-7.57-8.52-4,0-7.54,3.48-7.54,8.58,0,5.51,3.7,8.69,7.93,8.69a7.17,7.17,0,0,0,7.08-5.14ZM129.49,3.54c0-.15,0-.32,0-.45A1.47,1.47,0,0,1,131,1.44a1.35,1.35,0,0,1,1.46,1.39,2,2,0,0,1-1.11,1.67l-1.43.92a4.06,4.06,0,0,0-2.06,3.68h6.28V7.64h-4.3a1.84,1.84,0,0,1,.88-1l1.69-1.07A3.23,3.23,0,0,0,134,2.8,2.81,2.81,0,0,0,131,0a2.9,2.9,0,0,0-3.09,2.92,4.87,4.87,0,0,0,0,.51Zm-8.21,1.11a4.16,4.16,0,0,1,.62-2.54,1.56,1.56,0,0,1,1.34-.66,1.58,1.58,0,0,1,1.34.66,4.26,4.26,0,0,1,.6,2.54,4.25,4.25,0,0,1-.6,2.54,1.58,1.58,0,0,1-1.34.66,1.56,1.56,0,0,1-1.34-.66,4.25,4.25,0,0,1-.62-2.54Zm-1.59,0a5.77,5.77,0,0,0,.78,3.2,3.36,3.36,0,0,0,5.53,0,5.77,5.77,0,0,0,.78-3.2,5.77,5.77,0,0,0-.78-3.2,3.35,3.35,0,0,0-5.53,0,5.77,5.77,0,0,0-.78,3.2Z"/></g></g></svg>