<svg xmlns="http://www.w3.org/2000/svg" viewBox="0 0 149.46 28.47"><g data-name="Слой 2"><path d="M3.42 27.89V16.72c0-2.77 1.66-4.7 4.12-4.7 2.65 0 3.76 1.85 3.76 4.24v11.63h3.46V16.68C14.77 14 16.42 12 18.85 12c2.61 0 3.76 1.81 3.76 4.24v11.65H26v-12c0-4.85-3-7-6.11-7A6.3 6.3 0 0 0 14 12.33a5.52 5.52 0 0 0-5.3-3.51 6 6 0 0 0-5.38 3V9.36H0v18.53zm37.13-2.66c-2.95 0-5.52-2.31-5.52-6.63s2.58-6.6 5.53-6.6 5.52 2.31 5.52 6.59-2.58 6.63-5.52 6.63zm0-16.45c-5.3 0-9.06 4.2-9.06 9.82s3.76 9.86 9.06 9.86 9.06-4.2 9.06-9.86-3.76-9.82-9.06-9.82zm17 9.78c0-3.81 2.06-6.51 5.23-6.51s5.08 2.62 5.08 6.43-2 6.7-5.12 6.7-5.19-2.81-5.19-6.63zm10.35 6.82a16.24 16.24 0 0 0 .18 2.5h3.35a30.61 30.61 0 0 1-.18-3.43V0h-3.46v12c-.59-1.5-2.28-3.12-5.41-3.12-5 0-8.4 4.47-8.4 9.71 0 5.51 3.2 9.82 8.4 9.82a5.9 5.9 0 0 0 5.49-3.31zm22.1.27a17.15 17.15 0 0 0 .15 2.23h3.31a32.63 32.63 0 0 1-.18-3.43V9.36h-3.46v11.17c0 2.81-1.4 4.74-4.2 4.74s-4-2.23-4-4.78V9.36h-3.47V21c0 4.2 2.5 7.43 6.63 7.43A5.71 5.71 0 0 0 90 25.65zm14 2.23V0h-3.46v27.89zm9.55-11.17a4.87 4.87 0 0 1 4.88-4.71 4.56 4.56 0 0 1 4.86 4.74zm10.2 4.81a4.86 4.86 0 0 1-5 3.74c-3 0-5.27-2.31-5.34-5.62h13.33a8.51 8.51 0 0 0 .07-1.16c0-5.78-3.06-9.71-8.51-9.71-4.46 0-8.47 4-8.47 9.78 0 6.28 4.16 9.9 8.91 9.9a8.07 8.07 0 0 0 8-5.85zm14-16.25a4.78 4.78 0 0 1 .68-2.87 1.72 1.72 0 0 1 1.49-.75 1.74 1.74 0 0 1 1.49.75 4.9 4.9 0 0 1 .67 2.87 4.89 4.89 0 0 1-.67 2.87 1.74 1.74 0 0 1-1.49.75 1.72 1.72 0 0 1-1.49-.75 4.89 4.89 0 0 1-.68-2.87zm-1.77 0a6.65 6.65 0 0 0 .86 3.62 3.68 3.68 0 0 0 6.13 0 6.65 6.65 0 0 0 .86-3.62 6.65 6.65 0 0 0-.83-3.62 3.68 3.68 0 0 0-6.13 0 6.65 6.65 0 0 0-.87 3.62zm13.48 5V.23h-1.54a2.47 2.47 0 0 1-2.54 1.9V3.4h2.33v6.9z" fill="#43484d" data-name="Слой 1"/></g></svg>